<svg width="1100" height="1540" viewBox="0 0 1100 1540" fill="none" xmlns="http://www.w3.org/2000/svg">
  <rect width="1100" height="1540" fill="#F1EEE8"/>
  <circle cx="809" cy="258" r="132" fill="#F1C4B5"/>
  <path d="M0 1228C150 1052 287 968 470 968C686 968 815 1083 1100 981V1540H0V1228Z" fill="#AFC3A8"/>
  <path d="M274 1540C314 1257 417 1030 563 1030C720 1030 826 1268 862 1540H274Z" fill="#D8B5A4"/>
  <path d="M0 864C181 731 342 681 538 681C756 681 920 755 1100 694V1088C889 1123 723 1066 538 1066C345 1066 181 1124 0 1244V864Z" fill="#DFE8D4"/>
  <text x="84" y="1362" fill="#5D6654" font-family="Georgia, serif" font-size="70" letter-spacing="2">OUR MOMENTS / 05</text>
  <text x="88" y="1426" fill="#7C8472" font-family="Arial, sans-serif" font-size="28" letter-spacing="8">SPRING TURN</text>
</svg>
